<svg xmlns="http://www.w3.org/2000/svg"  viewBox="0 0 64 64" width="64px" height="64px"><rect width="58" height="33" x="3" y="22" fill="#cda1a7" rx="3" ry="3"/><path fill="#c4939c" d="M4,49H60a1,1,0,0,1,1,1v1a4,4,0,0,1-4,4H7a4,4,0,0,1-4-4V50a1,1,0,0,1,1-1Z" transform="rotate(180 32 52)"/><path fill="#cda1a7" d="M61,11H3a2,2,0,0,0-2,2v9.8a4,4,0,0,0,3.12,3.9L32,33l27.88-6.3A4,4,0,0,0,63,22.8V13A2,2,0,0,0,61,11Z"/><path fill="#dbb2ba" d="M3,11H61a2,2,0,0,1,2,2h0a3,3,0,0,1-3,3H4a3,3,0,0,1-3-3H1A2,2,0,0,1,3,11Z"/><path fill="#f9e3ae" d="M29 30H35V38H29z"/><path fill="#8d6c9f" d="M7 14a1 1 0 0 0-1 1v2a1 1 0 0 0 2 0V15A1 1 0 0 0 7 14zM12 14a1 1 0 0 0-1 1v2a1 1 0 0 0 2 0V15A1 1 0 0 0 12 14zM17 14a1 1 0 0 0-1 1v2a1 1 0 0 0 2 0V15A1 1 0 0 0 17 14zM22 14a1 1 0 0 0-1 1v2a1 1 0 0 0 2 0V15A1 1 0 0 0 22 14zM27 14a1 1 0 0 0-1 1v2a1 1 0 0 0 2 0V15A1 1 0 0 0 27 14zM32 14a1 1 0 0 0-1 1v2a1 1 0 0 0 2 0V15A1 1 0 0 0 32 14zM37 14a1 1 0 0 0-1 1v2a1 1 0 0 0 2 0V15A1 1 0 0 0 37 14zM42 14a1 1 0 0 0-1 1v2a1 1 0 0 0 2 0V15A1 1 0 0 0 42 14zM47 14a1 1 0 0 0-1 1v2a1 1 0 0 0 2 0V15A1 1 0 0 0 47 14zM52 14a1 1 0 0 0-1 1v2a1 1 0 0 0 2 0V15A1 1 0 0 0 52 14zM57 14a1 1 0 0 0-1 1v2a1 1 0 0 0 2 0V15A1 1 0 0 0 57 14zM57 48H53a1 1 0 0 0 0 2h4a1 1 0 0 0 0-2zM49 48H7a1 1 0 0 0 0 2H49a1 1 0 0 0 0-2z"/><path fill="#8d6c9f" d="M61,10H43.54L40.43,5.34A3,3,0,0,0,37.93,4H26.07a3,3,0,0,0-2.5,1.34L20.46,10H3a3,3,0,0,0-3,3v9.8a5,5,0,0,0,2,4V52a4,4,0,0,0,4,4H58a4,4,0,0,0,4-4V26.79a5,5,0,0,0,2-4V13A3,3,0,0,0,61,10ZM25.24,6.45A1,1,0,0,1,26.07,6H37.93a1,1,0,0,1,.83.45L41.13,10H22.87ZM58,54H6a2,2,0,0,1-2-2V27.7l24,5.42V37a2,2,0,0,0,2,2h4a2,2,0,0,0,2-2V33.12L60,27.7V52A2,2,0,0,1,58,54ZM30,37V31h4v6ZM62,22.8a3,3,0,0,1-2.34,2.93L36,31.07V31a2,2,0,0,0-2-2H30a2,2,0,0,0-2,2v.07L4.34,25.73A3,3,0,0,1,2,22.8V18a1,1,0,0,0,1-1V15a1,1,0,0,0-1-1V13a1,1,0,0,1,1-1H61a1,1,0,0,1,1,1v1a1,1,0,0,0-1,1v2a1,1,0,0,0,1,1Z"/></svg>